<?xml version="1.0" encoding="UTF-8"?>
<!DOCTYPE svg PUBLIC "-//W3C//DTD SVG 1.1//EN" "http://www.w3.org/Graphics/SVG/1.1/DTD/svg11.dtd">
<!-- Creator: CorelDRAW (Versión OEM) -->
<svg xmlns="http://www.w3.org/2000/svg" xml:space="preserve" width="18.1899mm" height="23.1509mm" version="1.1" style="shape-rendering:geometricPrecision; text-rendering:geometricPrecision; image-rendering:optimizeQuality; fill-rule:evenodd; clip-rule:evenodd"
viewBox="0 0 590.63 751.71"
 xmlns:xlink="http://www.w3.org/1999/xlink"
 xmlns:xodm="http://www.corel.com/coreldraw/odm/2003">
 <defs>
  <style type="text/css">
   <![CDATA[
    .fil0 {fill:black;fill-rule:nonzero}
   ]]>
  </style>
 </defs>
 <g id="Capa_x0020_1">
  <metadata id="CorelCorpID_0Corel-Layer"/>
  <polygon class="fil0" points="205.82,366.9 205.82,260.35 99.27,366.9 "/>
  <polygon class="fil0" points="80.54,393.74 205.82,393.74 205.82,519.05 80.54,519.05 "/>
  <polygon class="fil0" points="232.66,545.9 232.66,652.45 339.24,545.9 "/>
  <path class="fil0" d="M335.59 120.81c0,53.69 -80.54,53.69 -80.54,0 0,-53.69 80.54,-53.69 80.54,0z"/>
  <polygon class="fil0" points="80.54,545.9 205.82,545.9 205.82,671.17 80.54,671.17 "/>
  <polygon class="fil0" points="357.97,671.17 357.97,565.12 251.92,671.17 "/>
  <path class="fil0" d="M161.08 120.81c0,53.69 -80.54,53.69 -80.54,0 0,-53.69 80.54,-53.69 80.54,0z"/>
  <polygon class="fil0" points="80.54,241.62 80.54,347.67 186.59,241.62 "/>
  <polygon class="fil0" points="384.82,545.9 510.09,545.9 510.09,671.17 384.82,671.17 "/>
  <polygon class="fil0" points="384.82,241.62 510.09,241.62 510.09,366.9 384.82,366.9 "/>
  <path class="fil0" d="M510.09 120.81c0,53.69 -80.54,53.69 -80.54,0 0,-53.69 80.54,-53.69 80.54,0z"/>
  <path class="fil0" d="M536.94 0l-483.24 0c-29.6,0 -53.69,24.1 -53.69,53.69l0 644.33c0,29.6 24.1,53.69 53.69,53.69l483.24 0c29.6,0 53.69,-24.1 53.69,-53.69l0 -644.32c0,-29.6 -24.1,-53.69 -53.69,-53.69l0 -0zm-241.62 53.69c37.02,0 67.12,30.1 67.12,67.12 0,37.02 -30.1,67.12 -67.12,67.12 -37.02,0 -67.12,-30.1 -67.12,-67.12 0,-37.02 30.1,-67.12 67.12,-67.12zm-174.5 0c37.02,0 67.12,30.1 67.12,67.12 0,37.02 -30.1,67.12 -67.12,67.12 -37.02,0 -67.12,-30.1 -67.12,-67.12 0,-37.02 30.1,-67.12 67.12,-67.12zm416.13 630.91c0,7.42 -6.01,13.42 -13.42,13.42l-456.4 0c-7.42,0 -13.42,-6.01 -13.42,-13.42l0 -456.4c0,-7.42 6.01,-13.42 13.42,-13.42l456.4 0c7.42,0 13.42,6.01 13.42,13.42l0 456.4zm-67.12 -496.66c-37.02,0 -67.12,-30.1 -67.12,-67.12 0,-37.02 30.1,-67.12 67.12,-67.12 37.02,0 67.12,30.1 67.12,67.12 0,37.02 -30.1,67.12 -67.12,67.12z"/>
  <polygon class="fil0" points="232.66,241.62 357.94,241.62 357.94,366.9 232.66,366.9 "/>
  <polygon class="fil0" points="232.66,393.74 357.94,393.74 357.94,519.05 232.66,519.05 "/>
  <polygon class="fil0" points="384.82,393.74 510.09,393.74 510.09,519.05 384.82,519.05 "/>
 </g>
</svg>
