<?xml version="1.0" encoding="UTF-8"?>
<!DOCTYPE svg PUBLIC "-//W3C//DTD SVG 1.1//EN" "http://www.w3.org/Graphics/SVG/1.1/DTD/svg11.dtd">
<!-- Creator: CorelDRAW (Versión OEM) -->
<svg xmlns="http://www.w3.org/2000/svg" xml:space="preserve" width="19.8699mm" height="23.151mm" version="1.1" style="shape-rendering:geometricPrecision; text-rendering:geometricPrecision; image-rendering:optimizeQuality; fill-rule:evenodd; clip-rule:evenodd"
viewBox="0 0 446.37 520.08"
 xmlns:xlink="http://www.w3.org/1999/xlink"
 xmlns:xodm="http://www.corel.com/coreldraw/odm/2003">
 <defs>
  <style type="text/css">
   <![CDATA[
    .fil0 {fill:black}
   ]]>
  </style>
 </defs>
 <g id="Capa_x0020_1">
  <metadata id="CorelCorpID_0Corel-Layer"/>
  <path class="fil0" d="M271.9 299.68c-0.84,-0.84 -1.79,-1.53 -2.87,-2.07l-0.02 -0.02c-1.54,-0.79 -3.3,-1.23 -5.14,-1.23 -3.15,0 -5.99,1.28 -8.04,3.33 -2.05,2.05 -3.33,4.89 -3.33,8.04 0,3.15 1.28,5.99 3.33,8.04 2.05,2.05 4.89,3.33 8.04,3.33 3.15,0 5.99,-1.28 8.04,-3.33 2.05,-2.05 3.33,-4.89 3.33,-8.04 0,-3.15 -1.28,-5.99 -3.33,-8.04l0 -0zm93.73 0.36c-2.05,-2.05 -4.89,-3.33 -8.04,-3.33 -3.15,0 -5.99,1.28 -8.04,3.33 -2.05,2.05 -3.33,4.89 -3.33,8.04 0,3.15 1.28,5.99 3.33,8.04 2.05,2.05 4.89,3.33 8.04,3.33 3.15,0 5.99,-1.28 8.04,-3.33 2.05,-2.05 3.33,-4.89 3.33,-8.04 0,-3.15 -1.28,-5.99 -3.33,-8.04zm-8.04 -9.78c2.15,0 4.22,0.38 6.14,1.1l0 -22.57c0,-13.9 -5.91,-26.54 -15.46,-35.7 -9.57,-9.19 -22.78,-14.9 -37.32,-14.9 -14.54,0 -27.77,5.71 -37.32,14.9 -9.55,9.16 -15.46,21.81 -15.46,35.7l0 22.06c1.79,-0.61 3.71,-0.92 5.68,-0.92 1.15,0 2.28,0.1 3.38,0.33l0 -21.58c0,-11.06 4.99,-21.09 13.03,-28.33 7.96,-7.17 18.89,-11.62 30.92,-11.62 12.03,0 22.96,4.45 30.92,11.62 8.04,7.24 13.03,17.28 13.03,28.33l0 21.78c0.82,-0.1 1.64,-0.18 2.48,-0.18l-0.02 -0.02zm68.31 70.84l-38.39 13.08c-0.74,0.26 -1.59,0.23 -2.38,-0.13l-35.45 -16.17 -37.85 17.76c-0.74,0.33 -1.61,0.41 -2.43,0.1l-41.23 -14.77 -37.26 15.54c-0.79,0.33 -1.74,0.33 -2.58,-0.05l-32.4 -15.02 -19.27 57.89c-0.95,2.87 -1.25,5.78 -0.9,8.62 0.36,2.82 1.33,5.5 2.94,8.01 1.61,2.46 3.58,4.38 5.86,5.63 2.23,1.25 4.76,1.89 7.5,1.89l237.86 0c2.74,0 5.27,-0.66 7.5,-1.89 2.25,-1.28 4.25,-3.17 5.86,-5.63 1.61,-2.48 2.61,-5.19 2.95,-8.01 0.36,-2.81 0.05,-5.73 -0.9,-8.62l-19.38 -58.25 -0.05 0.03zm-227.96 -5.81l19.5 -58.61c0.95,-2.84 2.43,-5.25 4.3,-7.14l0.23 -0.23c0.49,-0.46 0.97,-0.9 1.48,-1.28 2.64,-1.99 5.86,-3.12 9.37,-3.12l18.89 0 0 9.8c-0.15,0.15 -0.31,0.28 -0.46,0.44 -3.22,3.22 -5.22,7.68 -5.22,12.59 0,4.91 2,9.37 5.22,12.59 3.22,3.22 7.68,5.22 12.59,5.22 4.91,0 9.37,-1.99 12.59,-5.22 3.22,-3.23 5.22,-7.68 5.22,-12.59 0,-4.91 -1.99,-9.37 -5.22,-12.59 -0.84,-0.84 -1.77,-1.59 -2.77,-2.25l0 -7.99 74.96 0 0 7.78c-1.36,0.77 -2.59,1.74 -3.66,2.82 -3.22,3.22 -5.22,7.68 -5.22,12.59 0,4.91 1.99,9.37 5.22,12.59 3.23,3.23 7.68,5.22 12.59,5.22 4.91,0 9.37,-1.99 12.59,-5.22 3.22,-3.22 5.22,-7.68 5.22,-12.59 0,-4.91 -2,-9.37 -5.22,-12.59l0 -10.6 18.89 0c3.51,0 6.73,1.13 9.37,3.12 2.69,2.05 4.81,5.02 6.02,8.68l19.4 58.3 -37.21 12.69 -35.63 -16.28c-0.82,-0.38 -1.82,-0.41 -2.69,0l-38.01 17.84 -40.95 -14.69c-0.77,-0.33 -1.69,-0.38 -2.53,-0.02l-37.11 15.46 -31.79 -14.72 0.03 -0zm-7.06 0.92l-20.35 61.12c-1.28,3.81 -1.66,7.68 -1.2,11.42 0.46,3.76 1.79,7.37 3.97,10.72 2.17,3.35 4.94,5.96 8.09,7.76 3.2,1.79 6.78,2.74 10.65,2.74l18.04 -0c-0.25,12.26 0.28,23.65 2.13,33.96 1.79,9.95 4.81,18.92 9.57,26.72 -14.64,5.71 -27.49,10.44 -53,-3.46 -15.28,-8.32 -26.64,-2.23 -38.77,4.3 -11.59,6.25 -24.01,12.9 -41.54,4.96 -18.86,-8.55 -32.63,-5.5 -46.22,-2.48 -12.8,2.84 -25.39,5.63 -42.23,-2.94 16.3,-26.28 12.64,-65.72 8.34,-112.12 -5.83,-62.76 -12.85,-138.52 27.46,-209.51 3.76,-6.63 6.71,-13.26 8.86,-19.86 5.94,13.23 15.46,28.51 27.82,42.18 12.26,13.57 27.36,25.62 44.51,32.71 1.64,0.66 3.53,-0.1 4.2,-1.74 0.66,-1.64 -0.1,-3.53 -1.74,-4.2 -16.2,-6.68 -30.51,-18.15 -42.2,-31.07 -14.38,-15.92 -24.75,-33.99 -29.79,-48.12 2.2,-10.24 2.64,-20.32 1.61,-30.05 -2.33,-21.91 -12.05,-42.07 -25.75,-58.58 -20.83,-25.08 7.52,-58.35 18.45,-70.66 14.87,1.94 27.79,10.39 38.18,20.91 16.1,16.33 26.05,37.44 27.87,47.68 0.02,0.15 0.05,0.28 0.1,0.44l0.08 0.23c0.16,0.41 0.41,0.79 0.72,1.1l0.02 0.02c0.31,0.31 0.66,0.54 1.1,0.72l0.23 0.08c0.28,0.08 0.59,0.13 0.9,0.15l0.13 0c0.31,0 0.62,-0.05 0.9,-0.15l0.23 -0.08c0.41,-0.16 0.79,-0.41 1.1,-0.72l0.02 -0.02c0.31,-0.31 0.54,-0.66 0.72,-1.1l0.08 -0.23c0.05,-0.15 0.08,-0.28 0.1,-0.44 1.84,-10.24 11.77,-31.35 27.87,-47.68 10.39,-10.52 23.31,-18.94 38.19,-20.91 10.93,12.31 39.26,45.58 18.45,70.66 -13.69,16.51 -23.44,36.68 -25.75,58.58 -2.02,19.17 1.61,39.64 13.26,60.15 9.16,16.15 15.89,32.5 20.73,48.91 4.71,15.95 7.65,31.92 9.32,47.71 -2.13,2.41 -3.79,5.32 -4.89,8.65l-20.35 61.12c-0.05,0.13 -0.1,0.28 -0.13,0.41l-0.07 0.03z"/>
 </g>
</svg>
