<?xml version="1.0" encoding="UTF-8"?>
<!DOCTYPE svg PUBLIC "-//W3C//DTD SVG 1.1//EN" "http://www.w3.org/Graphics/SVG/1.1/DTD/svg11.dtd">
<!-- Creator: CorelDRAW (Versión OEM) -->
<svg xmlns="http://www.w3.org/2000/svg" xml:space="preserve" width="23.1514mm" height="23.1511mm" version="1.1" style="shape-rendering:geometricPrecision; text-rendering:geometricPrecision; image-rendering:optimizeQuality; fill-rule:evenodd; clip-rule:evenodd"
viewBox="0 0 572.61 572.6"
 xmlns:xlink="http://www.w3.org/1999/xlink"
 xmlns:xodm="http://www.corel.com/coreldraw/odm/2003">
 <defs>
  <style type="text/css">
   <![CDATA[
    .fil0 {fill:black;fill-rule:nonzero}
   ]]>
  </style>
 </defs>
 <g id="Capa_x0020_1">
  <metadata id="CorelCorpID_0Corel-Layer"/>
  <g id="_1963168192896">
   <path class="fil0" d="M286.31 224.95c20.83,0 41.07,2.91 60.55,7.93 0.34,-2.63 0.8,-5.22 0.8,-7.93 0,-33.83 -27.52,-61.36 -61.35,-61.36 -33.83,0 -61.35,27.53 -61.35,61.36 0,2.71 0.46,5.3 0.8,7.93 19.48,-5.02 39.72,-7.93 60.55,-7.93z"/>
   <path class="fil0" d="M552.16 470.35l-81.8 0 -368.11 0 -81.8 0c-11.29,0 -20.45,9.14 -20.45,20.45 0,11.31 9.16,20.45 20.45,20.45l64.25 0c9.15,35.18 40.89,61.35 78.9,61.35l245.4 0c38.01,0 69.75,-26.16 78.9,-61.35l64.25 0.01c11.29,0 20.45,-9.14 20.45,-20.45 0,-11.31 -9.16,-20.45 -20.45,-20.45z"/>
   <path class="fil0" d="M552.16 0c-11.29,0 -20.45,9.14 -20.45,20.45l0 81.8 -20.45 0 0 -81.8c0,-11.3 -9.16,-20.45 -20.45,-20.45 -11.29,0 -20.45,9.14 -20.45,20.45l0 81.8 -20.44 0 0 -81.8c0,-11.3 -9.16,-20.45 -20.45,-20.45 -11.29,0 -20.45,9.14 -20.45,20.45l0 102.25c0,38.01 26.17,69.75 61.35,78.9l0 84.7c0,11.3 9.16,20.45 20.45,20.45 11.29,0 20.45,-9.14 20.45,-20.45l0 -84.7c35.18,-9.15 61.35,-40.89 61.35,-78.9l0 -102.25c0,-11.31 -9.16,-20.45 -20.45,-20.45z"/>
   <path class="fil0" d="M81.81 0c-45.11,0 -81.81,45.87 -81.81,102.25 0,47.5 26.17,87.19 61.35,98.62l0 85.44c0,11.3 9.16,20.45 20.45,20.45 11.29,0 20.45,-9.14 20.45,-20.45l0 -85.43c35.18,-11.44 61.35,-51.12 61.35,-98.62 0,-56.38 -36.7,-102.25 -81.8,-102.25z"/>
   <path class="fil0" d="M286.31 245.4c-117.68,0 -214.52,90.02 -224.95,204.5l449.9 0c-10.43,-114.48 -107.27,-204.5 -224.95,-204.5zm71.51 110.13l-71.51 73.93 -71.51 -73.93c-23.67,-24.47 -3.51,-68.66 29.97,-69.22 0.25,-0.01 -0.25,-0.01 0,-0.01 25.49,0 41.54,21.36 41.54,47.71 0,-26.35 16.05,-47.71 41.54,-47.71 0.25,0 -0.25,0 0,0.01 33.47,0.56 53.63,44.75 29.97,69.22z"/>
  </g>
 </g>
</svg>
