<?xml version="1.0" encoding="UTF-8"?>
<!DOCTYPE svg PUBLIC "-//W3C//DTD SVG 1.1//EN" "http://www.w3.org/Graphics/SVG/1.1/DTD/svg11.dtd">
<!-- Creator: CorelDRAW (Versión OEM) -->
<svg xmlns="http://www.w3.org/2000/svg" xml:space="preserve" width="52.5332mm" height="52.5332mm" version="1.1" style="shape-rendering:geometricPrecision; text-rendering:geometricPrecision; image-rendering:optimizeQuality; fill-rule:evenodd; clip-rule:evenodd"
viewBox="0 0 629.99 629.99"
 xmlns:xlink="http://www.w3.org/1999/xlink"
 xmlns:xodm="http://www.corel.com/coreldraw/odm/2003">
 <defs>
  <style type="text/css">
   <![CDATA[
    .fil0 {fill:none}
    .fil6 {fill:#21ACDC}
    .fil8 {fill:#319B91}
    .fil7 {fill:#421B71}
    .fil5 {fill:#4CB271}
    .fil3 {fill:#6D2379}
    .fil2 {fill:#C90B4A}
    .fil1 {fill:#F2832B}
    .fil4 {fill:#FABB2A}
   ]]>
  </style>
 </defs>
 <g id="Capa_x0020_1">
  <metadata id="CorelCorpID_0Corel-Layer"/>
  <rect class="fil0" width="629.99" height="629.99"/>
  <g id="_2037285250624">
   <path class="fil1" d="M29.55 281.8c19.51,-35.19 35.71,-84.22 116.75,-108.24 57.79,-17.13 131.71,-1.17 167.41,49.1 43.2,30.62 58.61,74.49 56.26,116.98 85.37,-109.39 -8.06,-207.06 -102.04,-249.52 -75.3,0.18 -119.9,17.99 -164.16,51.99 -36.73,28.22 -60.9,75.74 -74.22,139.68z"/>
   <path class="fil2" d="M29.55 281.8c-12.49,132.86 65.92,225.04 182.51,241.29 -9.3,-7.66 -66.87,-29.44 -92.96,-72.42 -25.19,-41.49 -30.38,-82.91 -14.61,-129.02 4.17,-86.12 81.17,-126.46 138.01,-123.06 23.94,1.43 49.23,8.1 71.66,24.39 -42.06,-59.21 -118.41,-69.89 -182.46,-46.56 -60.17,21.92 -81.55,63.78 -102.15,105.38z"/>
   <path class="fil3" d="M212.06 523.09l89.19 0.06c40.93,-17.79 51.11,-21.67 83.91,-47.41 29.96,-27.18 59.34,-55.13 78.89,-116.79 -39.22,52.88 -140.76,101.1 -203.75,103.71 -79.42,3.49 -153.51,-39.21 -155.81,-141.01 -18.45,53.8 -10.53,94.92 23.07,141 19.44,26.67 58.75,46.62 84.5,60.44z"/>
   <path class="fil4" d="M340.72 415.25c77.3,-13.49 133.35,-89.08 117.13,-175.88 -16.19,-86.64 -92.36,-144.74 -189.91,-149.24 93.68,56.76 175.5,131.8 102.04,249.52 -1.18,21.89 -7.74,48.43 -29.26,75.6z"/>
   <path class="fil5" d="M152.43 382.69c1.17,-24.12 6.26,-40.02 20.32,-55.76 16.12,-18.04 46.49,-35.52 63.69,-34.94 32.43,1.09 40.53,27.5 40.24,41.13 -0.46,21.95 -17.8,39.45 -39.35,39.37 -16.9,0.06 -26.61,-7.73 -34.54,-18.14 23.64,43.23 92.1,57.37 105.37,43.84 16.82,-17.16 34.48,-52.68 25.32,-91.65 -10.74,-45.67 -51.8,-77.59 -98.9,-77.01 -45.68,0.57 -82.12,32.64 -93.61,71.06 -8.08,27.02 -3.97,58.88 11.46,82.11z"/>
   <path class="fil6" d="M301.25 523.15l86.33 0c39.95,-15.08 119.74,-37.93 189.42,-142.76 39.19,-82.97 33.65,-89.05 -28.96,-90.38 -43.79,204.44 -213.1,211.79 -246.8,233.14z"/>
   <path class="fil7" d="M387.58 523.15c101.27,-1.12 128.23,4.8 145.81,-21.25 10.55,-15.47 37.61,-98.8 43.61,-121.5 -61.45,84.41 -108.63,113.34 -189.42,142.76z"/>
   <path class="fil8" d="M152.43 382.69c11.83,19.03 29.49,32.45 50.33,40.19 42.6,15.84 93.79,-2.05 117.56,-40.47 -18.15,9.28 -91.71,10.92 -117.41,-27.89 -1.88,-2.84 -3.35,-6.3 -4.68,-9.58 -7.67,-18.95 3.27,-43.16 24.38,-50.73 -44.35,12.4 -73.89,52.15 -70.19,88.48z"/>
   <path class="fil5" d="M464.05 358.95c-26.74,90.83 -105.18,141.56 -149.73,158.72 59.69,-18.74 103.76,-32.91 149.32,-73.32 64.89,-57.55 75.63,-116.69 84.41,-154.35 -76.81,-0.19 -62.82,-4.58 -84,68.94z"/>
  </g>
 </g>
</svg>
