<?xml version="1.0" encoding="UTF-8"?>
<!DOCTYPE svg PUBLIC "-//W3C//DTD SVG 1.1//EN" "http://www.w3.org/Graphics/SVG/1.1/DTD/svg11.dtd">
<!-- Creator: CorelDRAW (Versión OEM) -->
<svg xmlns="http://www.w3.org/2000/svg" xml:space="preserve" width="17.2784mm" height="23.151mm" version="1.1" style="shape-rendering:geometricPrecision; text-rendering:geometricPrecision; image-rendering:optimizeQuality; fill-rule:evenodd; clip-rule:evenodd"
viewBox="0 0 487.35 652.99"
 xmlns:xlink="http://www.w3.org/1999/xlink"
 xmlns:xodm="http://www.corel.com/coreldraw/odm/2003">
 <defs>
  <style type="text/css">
   <![CDATA[
    .fil0 {fill:black;fill-rule:nonzero}
   ]]>
  </style>
 </defs>
 <g id="Capa_x0020_1">
  <metadata id="CorelCorpID_0Corel-Layer"/>
  <g>
   <path class="fil0" d="M240.06 652.98l-0.23 -0.9 0.23 0.9zm0 0l0 0 0 0z"/>
  </g>
  <g>
   <path class="fil0" d="M247.73 652.08l-0.23 0.68 0.23 -0.68zm0 0l0 0 0 0z"/>
  </g>
  <path class="fil0" d="M243.73 135.21c12.46,0 22.56,-10.1 22.56,-22.56l0 -90.08c0,-12.47 -10.1,-22.56 -22.56,-22.56 -12.47,0 -22.56,10.09 -22.56,22.56l0 90.05c0,12.46 10.09,22.59 22.56,22.59z"/>
  <path class="fil0" d="M133.63 118.85c4.01,7.81 11.9,12.27 20.11,12.27 3.44,0 6.97,-0.79 10.26,-2.45 11.11,-5.7 15.48,-19.26 9.82,-30.4l-21.92 -42.79c-5.64,-11.05 -19.23,-15.46 -30.37,-9.82 -11.08,5.7 -15.48,19.29 -9.79,30.37l21.88 42.81z"/>
  <path class="fil0" d="M323.46 128.64c3.3,1.66 6.8,2.45 10.27,2.45 8.21,0 16.11,-4.46 20.11,-12.27l21.92 -42.79c5.67,-11.11 1.29,-24.71 -9.82,-30.4 -11.11,-5.7 -24.71,-1.29 -30.37,9.82l-21.92 42.79c-5.67,11.14 -1.29,24.74 9.82,30.4z"/>
  <polygon class="fil0" points="278.65,621.18 483.97,352.01 347.24,352.01 "/>
  <polygon class="fil0" points="187.04,352.01 243.67,575.6 300.53,352.01 "/>
  <polygon class="fil0" points="3.61,352.01 208.7,621.17 140.34,352.01 "/>
  <polygon class="fil0" points="58.89,211.67 -0,306.88 117.55,306.88 "/>
  <polygon class="fil0" points="217.16,190.46 98.85,190.46 157.96,286.29 "/>
  <polygon class="fil0" points="198.33,306.88 289.25,306.88 243.68,233.33 "/>
  <polygon class="fil0" points="370.02,306.88 487.35,306.88 428.46,211.9 "/>
  <polygon class="fil0" points="388.72,190.46 270.22,190.46 329.58,286.29 "/>
 </g>
</svg>
