<?xml version="1.0" encoding="UTF-8"?>
<!DOCTYPE svg PUBLIC "-//W3C//DTD SVG 1.1//EN" "http://www.w3.org/Graphics/SVG/1.1/DTD/svg11.dtd">
<!-- Creator: CorelDRAW (Versión OEM) -->
<svg xmlns="http://www.w3.org/2000/svg" xml:space="preserve" width="196.229mm" height="103.24mm" version="1.1" style="shape-rendering:geometricPrecision; text-rendering:geometricPrecision; image-rendering:optimizeQuality; fill-rule:evenodd; clip-rule:evenodd"
viewBox="0 0 19072.15 10034.24"
 xmlns:xlink="http://www.w3.org/1999/xlink"
 xmlns:xodm="http://www.corel.com/coreldraw/odm/2003">
 <defs>
  <style type="text/css">
   <![CDATA[
    .fil0 {fill:#00AFEF}
    .fil1 {fill:#00AFEF}
    .fil2 {fill:#00AFEF;fill-rule:nonzero}
    .fil3 {fill:#787878;fill-rule:nonzero}
    .fil4 {fill:#787878;fill-rule:nonzero}
   ]]>
  </style>
 </defs>
 <g id="Capa_x0020_1">
  <metadata id="CorelCorpID_0Corel-Layer"/>
  <g id="_2144281523360">
   <path class="fil0" d="M10111.15 0.11c73.85,0.02 228.37,68.08 222.35,225.16 -6.18,160.89 -105.43,140.49 -104.95,227.18 5.1,915.17 -1.59,2419.65 -0.45,2457.58 2.36,78.36 288.93,228.98 283.25,485.01 -4.68,211.58 -152.17,387.04 -399.77,387.08 -247.61,0.04 -421.56,-187.68 -423.06,-390.86 -2.05,-277.43 299.65,-413.99 299.65,-489.35 0,-75.28 1.59,-1567.74 1.71,-2440.82 0.01,-85.07 -117.61,-90.78 -111.39,-246 6.48,-161.77 137.44,-215 232.67,-214.98z"/>
   <path class="fil1" d="M10805.36 194.05c35.18,34.79 1074.9,1067.47 1244.75,1234.98 142.17,140.2 147.67,158.65 147.62,234.91 -0.02,27.05 0.36,572.08 0.35,721.11 0,82.58 5.47,104.75 51.59,150.54 47.53,47.19 178,176.22 268.76,266.3 112.19,111.38 97.09,79.95 98.92,253.13 0.35,32.93 5.21,779.9 2.73,854.96 -2.6,78.88 -30.44,121.52 -63.32,154.46 -16.82,16.86 -222.28,234.44 -317.81,324.15 -7.54,7.09 -40.86,33.42 -40.86,81.32 0,72.52 0.07,571.04 0.01,676.75 -0.02,50.08 -9.86,70.11 -92.11,153.08 -60.04,60.56 -1051.55,1060.32 -1164.85,1174.44 -70.26,70.78 -90.15,91.56 -193.92,91.56 -52.44,0 -140.3,0 -241.78,0 -59.93,0 -81.92,-11.43 -160.63,-92.15 -78.71,-80.72 -73.79,-73.71 -73.78,-127.04 0.01,-49.71 -0.01,-633.62 -0.01,-693.96 0,-24.41 0.66,-448.68 0.66,-511.31 0,-168.57 54.85,-199.16 97.12,-241.79 288.72,-291.17 752.59,-758.02 863.83,-871.17 55.02,-55.96 44.35,-72.36 44.19,-155.99 -0.03,-16.45 2.04,-852.32 1.95,-1172.93 -0.03,-110.81 -9.9,-109.1 -55.27,-154.06 -34.46,-34.16 -220.73,-218.81 -287.95,-285.6 -8.74,-8.68 -103.03,26.81 -208.63,-66.23 -74.57,-65.69 -116.08,-227.37 18.75,-341.27 109.11,-92.16 214.85,-57.54 294.17,14.92 93.21,85.13 41.8,200.96 53.95,213 113.14,112.07 350.8,347.92 362.52,359.56 68.63,68.1 58.9,85.68 58.9,183.61 0,49.93 -0.09,1347.95 -0.09,1387.46 0,53.48 -30.99,103.38 -49.76,122.31 -62.17,62.73 -712.04,719.94 -869.17,876.91 -83.78,83.69 -86.3,81.72 -86.34,227.2 -0.03,116.3 -0.16,387.92 0.01,405.52 1.15,121.87 0.02,544.49 -0.04,565.51 -0.06,19.36 29.29,41.93 58.03,68.37 25.04,23.03 44.51,47.14 66.47,46.88 25.25,-0.3 71.17,-0.06 93.27,-0.17 30.3,-0.15 26.48,0.32 68.08,-41.63 22.42,-22.61 1151.87,-1161.48 1163.5,-1173.14 0,-37.57 0.05,-483.79 -0.04,-681.99 -0.02,-49.73 15.45,-101.31 16.86,-102.92 27,-30.89 323.46,-370.51 339.79,-388.82 47.96,-53.76 61.67,-68.04 61.67,-129.75 0,-163.98 0.08,-591.09 0.06,-651.18 -0.08,-162.44 23.42,-131.99 -79.74,-234.33 -77.74,-77.11 -201.6,-199.78 -301.19,-298.55 -42.55,-42.19 -37.41,-46.07 -37.41,-110.69 0,-89.09 0.01,-664.77 0.01,-745.2 0,-58.48 7.79,-83.31 -48.22,-138.28 -24.08,-23.64 -1326.31,-1314.91 -1354.95,-1343.21 -44.89,-44.36 -91.27,-101.94 -0.78,-185.67 91.32,-84.49 179.73,26.54 250.12,96.13z"/>
   <path class="fil1" d="M8668.18 936.61c117.99,0 214.52,108.28 214.52,221.14 0,112.86 -88.98,222.7 -206.67,214.47 -31.51,-2.2 -41.51,6.05 -61.17,25.79 -13.12,13.17 -357.15,358.29 -464.42,465.93 -30.87,30.99 -40.73,59.01 -40.73,120.47 0,39.4 6.67,1561.13 6.67,2277.96 0,87.12 -2.39,89.56 36.41,128.02 16.71,16.56 690.9,685.57 726.56,721.11 148.33,147.79 140.84,127.83 143.91,391.2 0.89,76.79 3.2,694.5 1.65,749.78 -0.53,19.17 18.9,34.28 38.52,49.92 16.43,13.11 32.49,23.89 43.48,23.86 13.95,-0.04 145.56,-0.52 262.39,-0.6 102.61,-0.07 77.5,7.71 149.36,-64.72 63.81,-64.31 48.43,-56.82 48.43,-145.89 0,-94.65 0.01,-249.98 0.01,-316.06 0,-18.44 -0.24,-575.82 -0.24,-872.29 0,-160.66 0.52,-169.14 -132.92,-301.22 -13.34,-13.2 -714.35,-708.86 -804.67,-798.32 -51.46,-50.97 -66.5,-80.23 -66.5,-138.9 0,-23.6 0,-1112.72 0,-1182.37 0,-110.47 10.45,-122.38 58.38,-173.34 192.55,-204.69 433.98,-450.89 538.81,-573.78 41.99,-49.22 46.41,-65.1 46.41,-153.24 0,-24.54 0.01,-842.2 0.01,-1247.31 0,-81.32 -13.62,-120.99 -96.44,-120.32 -11.88,0.09 -111.78,-0.25 -209.91,-0.07 -174.89,0.32 -130.55,-20.04 -409.02,261.61 -15.45,15.63 -895.05,893.56 -1121.92,1125.5 -53.94,55.14 -46.32,82.44 -46.32,148.79 0,30.4 -0.68,3017.1 -0.68,3293.31 0,103.95 -9.69,86.4 37.26,133.55 0,0 -155.91,181.52 -155.91,181.52 -116.83,-115.77 -120.25,-107.5 -120.25,-203.41 0,-15.32 0.17,-204.38 0.02,-549.26 -0.01,-20.3 -6.22,-33.03 -26.19,-58.83 -20.95,-27.06 -27.07,-39.62 -51.97,-39.97 -99.07,-1.39 -278.08,-0.81 -407.5,-0.46 -65.7,0.17 -58.9,0.82 -92.82,-36.36 -36.21,-39.69 -36.56,-35.79 -36.56,-108.28 0,-77.36 -0.21,-74.86 36.01,-104.92 43.98,-36.5 33.18,-29.66 92.91,-29.89 70.06,-0.26 379.53,0.54 407.65,0.46 25,-0.08 38.52,-17.63 51.32,-31.64 14.69,-16.07 27.16,-27.56 27.16,-45.87 0,-114.84 -0.04,-187.06 0,-310.7 0,-12.51 -12.38,-24.78 -22.7,-34.21 -23.46,-21.4 -22.39,-24.1 -55.83,-24.28 -41.59,-0.22 -252.85,3.07 -406.99,2.73 -60.66,-0.13 -51.06,5.56 -93.34,-36.71 -35.64,-35.63 -36.27,-44 -36.27,-135.22 0,-89.48 10.9,-88.09 35.36,-112.11 36.83,-36.18 32.75,-30.7 95.44,-30.51 153.86,0.5 373.71,-0.56 404.63,-0.95 23.57,-0.29 37.84,-14.5 51.42,-25.6 15.04,-12.29 28.26,-22.65 28.26,-45.21 0,-116.87 -0.02,-195.14 0.01,-310.5 0,-8.66 -11.24,-24.2 -31.22,-41.82 -25.66,-22.63 -30.62,-25.55 -49.1,-25.26 -38.93,0.62 -352.25,-2.7 -405.24,-2.51 -69.02,0.25 -65.8,4.28 -93.99,-19.14 -22.7,-18.86 -35.57,-24.51 -35.57,-121.13 0,-76.99 1.65,-74.88 36.1,-106.35 28.91,-26.41 30.47,-22.55 93.53,-21.16 82.88,1.82 397.9,1.54 421.9,1.45 16,-0.06 24.74,-7.21 41.11,-29.11 16.22,-21.69 22.47,-26.49 22.47,-43.51 0.27,-585.52 0,-1009.05 0,-1021.97 0,-102.84 13.86,-120.41 68.26,-174.88 44.11,-44.16 1242.05,-1247.07 1263.85,-1267.92 270.36,-258.6 183.51,-235.38 488.17,-235.97 173.44,-0.33 377.38,-1.12 389.47,-1.14 100.57,-0.18 152.32,68.01 152.32,161.88 0,69.77 0.01,1507.74 0.01,1526.19 0,100.4 -7.12,105.6 -108.2,223.92 -147.6,172.78 -496.01,528.48 -503.75,537.5 -16.75,19.51 -31.67,35.78 -31.67,100.94 -0.04,278.93 0.01,983.26 0.01,1007.4 0,87.87 10.38,113 64.73,166.76 254.03,251.34 747.89,742.67 773.8,768.3 179.65,177.71 165.61,177.12 165.61,341.61 0,189.38 0.2,1394.94 0.18,1402.95 -0.18,55.05 -13.2,66.96 -119.51,174.13 -137.49,138.62 -147.97,154.05 -181.15,153.96 -319.19,-0.85 -590.28,0.16 -922.03,0.16 -211.38,0 -177.12,9.07 -327.24,-140.34 -286.91,-285.56 -923.43,-915.32 -1052.63,-1043.25 0,0 155.91,-181.52 155.91,-181.52 18.74,18.29 857.94,868.04 1069,1078.52 53.46,53.31 37.99,48.29 116.69,48.14 71.43,-0.13 161.52,-0.33 161.52,-0.33 22.86,-23.44 77.47,-74.62 77.5,-82.67 0.3,-68.72 0.6,-564.63 0.43,-589.72 -2.15,-309.33 17.87,-285.07 -148.35,-448.59 -155.3,-152.79 -690.13,-684.14 -705.15,-699.02 -56.88,-56.36 -52.94,-63.85 -54.11,-142.24 -0.9,-60.37 1.46,-2423.44 1.25,-2445.02 -1.13,-118.08 20.63,-141.86 75.54,-197.05 91.16,-91.64 452.39,-453.55 486.01,-487.32 21.11,-21.2 6.03,-55.09 6.03,-84.4 0,-112.86 104.47,-214.29 222.47,-214.29z"/>
  </g>
  <path class="fil2" d="M375.6 9388.19c-162.21,0 -158.2,0.28 -268.3,-110.41 -110.1,-110.69 -107.29,-95.78 -107.29,-265.18l0 -1627.57 331.08 0 2.78 1577.56c0.06,34.39 -2.67,29.65 23.49,60.05 26.16,30.39 21.35,28.91 65.46,28.91l1154.75 0c36.19,0 29.24,4.94 60.41,-28.18 31.17,-33.11 28.56,-26.5 28.56,-60.78l0 -1577.56 336.64 0 0 1627.57c0,179.28 14.84,142.91 -108.02,263.46 -122.86,120.55 -96.8,112.13 -267.57,112.13l-1254.76 0 2.79 0zm2295.29 0c-171.6,0 -137.96,14.51 -264.97,-114.07 -127.01,-128.58 -107.85,-90.09 -107.85,-258.75l0 -1769.46 333.86 -2.78 0 1719.47c0,34.37 -4.36,22.4 28.04,59.24 32.4,36.84 26.64,35.26 60.92,35.26l261.6 0 0 331.08 -314.38 0 2.78 0zm893.08 0c-170.78,0 -142.58,12.5 -263.4,-110.03 -120.82,-122.53 -109.41,-93.14 -109.41,-262.78l0 -1744.42 331.08 0 0 503.58 645.47 0 0 331.08 -645.47 0 0 859.76c0,34.28 -6.85,20.67 28.29,57.69 35.15,37.02 29.17,34.05 63.45,34.05l553.73 0 0 331.08 -603.73 0zm840.22 0l0 0 0 -1240.85c0,-170.6 -5.13,-149.18 112.02,-262.95 117.15,-113.76 110.64,-109.87 260.8,-109.87l898.64 0 0 331.08 -858.35 0c-24.56,0 -25.02,-0.64 -53.24,28.78 -28.22,29.42 -28.78,28.68 -28.78,53.24l0 1200.56 -331.08 0zm1847.37 0c-158.92,0 -147.76,5.31 -261.64,-108.64 -113.88,-113.95 -111.17,-93.92 -111.17,-264.17l0 -273.44c0,-157.71 -3.9,-155.73 102.06,-247.32 105.96,-91.59 88.84,-80.53 271.77,-80.8l933.79 -1.98 0 -253.36c0,-24.56 0.81,-21.14 -15.31,-37.57 -16.11,-16.43 -13,-15.3 -37.56,-15.3l-1254.76 0 0 -331.08 1265.89 0c170.56,0 150.97,-6.45 267.95,110.44 116.98,116.89 104.86,85.48 104.86,262.37 0.65,290.94 1.3,581.88 1.95,872.81 0.27,180.99 17.65,140.65 -102.2,258.68 -119.85,118.03 -89.69,109.35 -273.52,109.35l-892.13 0zm59.73 -331.08c274.1,0 548.2,0 822.3,0 27.31,0 21.75,1.81 38.29,-13.93 16.54,-15.74 14.49,-9.8 14.49,-36.23l0 -289.27 -890.24 0c-48.21,0 -37.51,-4.17 -62.92,19.62 -25.42,23.79 -23.38,23.6 -23.38,59.79l0 168.27c0,34.28 -5.38,23.68 29.05,57.45 34.44,33.77 28.41,34.29 72.41,34.29z"/>
  <g id="_2144281536176">
   <path class="fil3" d="M11940.06 9385.34c-141.17,0 -140.03,-2.73 -240.64,-102.96 -100.61,-100.23 -96.01,-95.71 -96.01,-233.68l0 -22.27 228.14 0 0 22.27c0,49.11 -0.86,45.09 32,76.5 35.35,33.8 27.39,32 76.51,32l968.19 0c49.12,0 43.61,0.52 76.51,-32 33.45,-33.06 32,-27.39 32,-76.5l0 -247.62c0,-49.11 2.22,-41.07 -32,-76.51 -30.94,-32.04 -27.39,-32 -76.51,-32l-968.19 0c-147.13,0 -125.21,9.96 -232.44,-94.8 -107.22,-104.76 -104.21,-100.05 -104.21,-241.84l0 -247.62c0,-149.76 -6.49,-135.97 100.54,-238.24 107.03,-102.27 97.06,-99.24 236.11,-98.4l968.19 0c161.93,0 140.97,-2.36 242.92,102.45 101.96,104.81 96.5,86.23 96.5,234.19l0 22.26 -230.92 0 0 -22.26c0,-49.11 1.14,-42.67 -32,-76.51 -33.13,-33.84 -27.39,-31.99 -76.51,-31.99l-968.19 0c-48.75,1.45 -41.66,-1.79 -76.51,31.99 -34.85,33.77 -32,27.4 -32,76.51l0 247.62c0,49.11 -1.47,41.7 32,76.51 33.46,34.81 27.39,32 76.51,32l968.19 0c144.92,0 155.63,5.1 247.83,107.59 84.11,93.49 91.59,102.89 91.59,229.05l0 247.62c0,138.36 -5.21,143.81 -97.05,234.74 -99.94,98.96 -100.19,101.9 -242.38,101.9l-968.19 0z"/>
   <path class="fil3" d="M8135.1 9388.19c-141.17,0 -140.03,-2.73 -240.64,-102.96 -100.61,-100.23 -96.01,-95.71 -96.01,-233.68l0 -22.27 228.14 0 0 22.27c0,49.11 -0.92,45.02 32,76.5 35.42,33.87 27.39,32 76.51,32l968.19 0c49.12,0 43.54,0.58 76.51,-32 33.52,-33.12 32,-27.39 32,-76.5l0 -247.62c0,-49.11 2.28,-41.01 -32,-76.51 -31,-32.11 -27.39,-32 -76.51,-32l-968.19 0c-147.13,0 -125.21,9.97 -232.44,-94.8 -107.22,-104.77 -104.21,-100.05 -104.21,-241.84l0 -247.62c0,-149.76 -6.49,-135.97 100.54,-238.24 107.03,-102.27 97.06,-99.24 236.11,-98.4l968.19 0c161.93,0 140.97,-2.36 242.92,102.45 101.96,104.81 96.5,86.23 96.5,234.19l0 22.26 -230.92 0 0 -22.26c0,-49.11 1.14,-42.67 -32,-76.51 -33.13,-33.84 -27.39,-31.99 -76.51,-31.99l-968.19 0c-48.75,1.45 -41.66,-1.79 -76.51,31.99 -34.85,33.77 -32,27.4 -32,76.51l0 247.62c0,49.11 -1.48,41.69 32,76.51 33.47,34.82 27.39,32 76.51,32l968.19 0c144.92,0 155.56,5.03 247.83,107.59 84.18,93.56 91.59,102.89 91.59,229.05l0 247.62c0,138.36 -5.14,143.74 -97.05,234.74 -100.01,99.03 -100.19,101.9 -242.38,101.9l-968.19 0zm1852.93 639.9l0 0 0 -230.92 1007.14 0c49.11,0 40.91,4.49 76.51,-32 35.6,-36.49 32,-27.39 32,-76.51l0 -206.26c0,-50.84 5.48,-40.22 -27.45,-70.07 -32.93,-29.85 -24.66,-24.14 -79.87,-24.14l-969.39 0c-153.48,0 -141.54,3.47 -245.99,-108.59 -104.44,-112.06 -90.65,-82.97 -90.65,-228.04l0 -1271.46 228.13 0 0 1271.46c0,49.11 -3.9,41.03 32,76.5 35.89,35.48 27.4,32 76.51,32l968.2 0c49.11,0 41.02,3.5 76.51,-32 35.49,-35.49 32,-27.39 32,-76.5l0 -1271.46 228.13 0 0 1908.57c-0.98,166.69 16.87,124.33 -92.32,235.11 -109.2,110.78 -101.42,104.32 -244.31,104.32l-1007.14 0zm3883.92 -639.9c-154.56,0 -144.02,2.95 -248.37,-108.65 -104.35,-111.61 -88.28,-83.81 -88.28,-227.99l0 -1805.64 228.14 0 0 528.61 698.32 0 0 228.14 -698.32 0 0 1048.88c0,49.11 -2.75,41.74 32,76.5 34.75,34.76 27.39,32 76.51,32l589.82 0 0 228.14 -589.82 0zm1135.12 0c-153.88,0 -149.37,-4.53 -246.63,-109.29 -97.26,-104.76 -90.01,-92.25 -90.01,-227.34l0 -940.38c0,-140.56 -7.07,-129.15 101.62,-239.31 108.68,-110.16 76.98,-97.33 235.02,-97.33l968.2 0c161.23,0 135.47,-9.93 241.55,101.06 106.09,110.99 97.87,87.09 97.87,235.58 0,84.47 0,168.94 0,253.41 0,178.32 17.82,144.11 -80.48,243.34 -98.29,99.23 -56.28,87.5 -255.88,87.5l-1079.77 0 0 356.13c0,49.11 -1.87,42.35 31.99,76.5 33.85,34.15 27.4,32 76.51,32l1307.63 0 0 228.14 -1307.63 0zm-108.5 -920.9c358.72,0 717.45,0 1076.17,0 65.5,0 49.68,3.54 80.97,-26.89 31.3,-30.43 28.06,-22.3 28.06,-76.04l0 -253.19c0,-49.11 4.5,-38.51 -32,-76.51 -36.5,-38 -27.4,-31.99 -76.51,-31.99l-968.2 0c-49.11,0 -41.56,-2.95 -76.51,31.99 -34.95,34.94 -31.99,27.4 -31.99,76.51l0 356.13zm1705.47 920.9l0 0 0 -1278.57c0,-170.01 -5.42,-148.96 99.12,-246 104.54,-97.04 84.72,-89.99 234.95,-89.1l1797.07 0c162.99,0 144.25,-3.92 245.81,105.9 101.56,109.82 90.83,95.03 90.83,230.74l0 1277.02 -225.35 0 0 -1277.02c0,-49.11 1.37,-42.26 -33.39,-76.51 -34.76,-34.25 -28.79,-31.99 -77.9,-31.99l-670.51 0c-49.11,0 -39.1,-3.11 -76.51,31.99 -37.41,35.1 -31.5,27.41 -32,76.51l0 1277.02 -230.92 0 0 -1277.02c0,-49.11 1.99,-41.11 -32,-76.51 -33.99,-35.4 -27.39,-31.99 -76.51,-31.99l-673.29 0c-49.11,0 -41.11,-3.03 -76.51,31.99 -35.4,35.02 -31.99,27.4 -31.99,76.51l0 1277.02 -230.92 0z"/>
  </g>
  <path class="fil4" d="M13844.3 10034.24l0 0 0 -382.77 -191.68 0 0 -48.52 431.28 0 0 48.52 -191.08 0 0 382.77 -48.52 0zm285.73 0l0 -431.28 393.54 0 0 48.52 -345.03 0 0 142.56 277.34 0 0 49.12 -277.34 0 0 142.56 345.03 0 0 48.52 -393.54 0zm529.52 0c-13.18,0 -25.26,-3.2 -36.24,-9.58 -10.98,-6.39 -19.66,-15.07 -26.06,-26.06 -6.39,-10.98 -9.58,-23.06 -9.58,-36.24l0 -287.53c0,-13.17 3.2,-25.25 9.58,-36.23 6.4,-10.98 15.07,-19.67 26.06,-26.06 10.98,-6.4 23.06,-9.58 36.24,-9.58l358.21 0 0 48.52 -358.21 0c-6.39,0 -11.88,2.29 -16.47,6.89 -4.59,4.59 -6.89,10.08 -6.89,16.46l0 287.53c0,6.4 2.3,11.89 6.89,16.47 4.6,4.6 10.09,6.89 16.47,6.89l358.21 0 0 48.52 -358.21 0zm421.11 0l0 -431.28 48.52 0 0 191.08 344.43 0 0 -191.08 49.12 0 0 431.28 -49.12 0 0 -191.08 -344.43 0 0 191.08 -48.52 0zm509.16 0l0 -431.28 66.49 0 316.29 376.18 0 -376.18 48.52 0 0 431.28 -66.49 0 -316.29 -376.18 0 376.18 -48.52 0zm569.07 0c-13.18,0 -25.26,-3.2 -36.24,-9.58 -10.98,-6.39 -19.66,-15.07 -26.06,-26.06 -6.39,-10.98 -9.58,-23.06 -9.58,-36.24l0 -287.53c0,-13.17 3.2,-25.25 9.58,-36.23 6.4,-10.98 15.07,-19.67 26.06,-26.06 10.98,-6.4 23.06,-9.58 36.24,-9.58l287.53 0c13.18,0 25.25,3.19 36.23,9.58 10.98,6.39 19.67,15.07 26.06,26.06 6.4,10.98 9.58,23.06 9.58,36.23l0 287.53c0,13.18 -3.19,25.26 -9.58,36.24 -6.39,10.98 -15.07,19.67 -26.06,26.06 -10.98,6.39 -23.05,9.58 -36.23,9.58l-287.53 0zm0 -48.52l287.53 0c6.39,0 11.88,-2.29 16.47,-6.89 4.59,-4.59 6.88,-10.08 6.88,-16.47l0 -287.53c0,-6.39 -2.29,-11.88 -6.88,-16.46 -4.6,-4.6 -10.09,-6.89 -16.47,-6.89l-287.53 0c-6.4,0 -11.89,2.29 -16.47,6.89 -4.6,4.59 -6.89,10.08 -6.89,16.46l0 287.53c0,6.4 2.29,11.89 6.89,16.47 4.59,4.6 10.08,6.89 16.47,6.89zm425.89 48.52l0 -431.89 48.52 0 0 383.37 382.77 0 0 48.52 -431.28 0zm536.72 0c-13.18,0 -25.26,-3.2 -36.24,-9.58 -10.98,-6.39 -19.66,-15.07 -26.06,-26.06 -6.39,-10.98 -9.58,-23.06 -9.58,-36.24l0 -287.53c0,-13.17 3.2,-25.25 9.58,-36.23 6.4,-10.98 15.07,-19.67 26.06,-26.06 10.98,-6.4 23.06,-9.58 36.24,-9.58l287.53 0c13.18,0 25.25,3.19 36.23,9.58 10.98,6.39 19.67,15.07 26.06,26.06 6.4,10.98 9.58,23.06 9.58,36.23l0 287.53c0,13.18 -3.19,25.26 -9.58,36.24 -6.39,10.98 -15.07,19.67 -26.06,26.06 -10.98,6.39 -23.05,9.58 -36.23,9.58l-287.53 0zm0 -48.52l287.53 0c6.39,0 11.88,-2.29 16.47,-6.89 4.59,-4.59 6.88,-10.08 6.88,-16.47l0 -287.53c0,-6.39 -2.29,-11.88 -6.88,-16.46 -4.6,-4.6 -10.09,-6.89 -16.47,-6.89l-287.53 0c-6.4,0 -11.89,2.29 -16.47,6.89 -4.6,4.59 -6.89,10.08 -6.89,16.46l0 287.53c0,6.4 2.29,11.89 6.89,16.47 4.59,4.6 10.08,6.89 16.47,6.89zm497.17 48.52c-13.18,0 -25.26,-3.2 -36.24,-9.58 -10.98,-6.39 -19.66,-15.07 -26.06,-26.06 -6.39,-10.98 -9.58,-23.06 -9.58,-36.24l0 -287.53c0,-13.17 3.2,-25.25 9.58,-36.23 6.4,-10.98 15.07,-19.67 26.06,-26.06 10.98,-6.4 23.06,-9.58 36.24,-9.58l287.53 0c13.18,0 25.26,3.19 36.24,9.58 10.98,6.39 19.66,15.07 26.06,26.06 6.39,10.98 9.58,23.06 9.58,36.23l0 17.38 -48.52 0 0 -17.38c0,-6.39 -2.3,-11.88 -6.89,-16.46 -4.6,-4.6 -10.09,-6.89 -16.47,-6.89l-287.53 0c-6.39,0 -11.88,2.29 -16.47,6.89 -4.59,4.59 -6.89,10.08 -6.89,16.46l0 287.53c0,6.4 2.3,11.89 6.89,16.47 4.6,4.6 10.09,6.89 16.47,6.89l287.53 0c6.39,0 11.88,-2.29 16.47,-6.89 4.59,-4.59 6.89,-10.08 6.89,-16.47l0 -106.62 -106.63 0 0 -49.12 155.15 0 0 155.74c0,13.18 -3.2,25.26 -9.58,36.24 -6.4,10.98 -15.07,19.67 -26.06,26.06 -10.98,6.39 -23.06,9.58 -36.24,9.58l-287.53 0zm431.29 0l0 -431.28 49.11 0 0 431.28 -49.11 0zm123.4 0l0 -431.28 393.54 0 0 48.52 -345.03 0 0 142.56 277.34 0 0 49.12 -277.34 0 0 142.56 345.03 0 0 48.52 -393.54 0zm526.52 0c-13.18,0 -25.26,-3.2 -36.24,-9.58 -10.98,-6.39 -19.66,-15.07 -26.06,-26.06 -6.39,-10.98 -9.58,-23.06 -9.58,-36.24l0 -16.77 48.52 0 0 16.77c0,6.4 2.3,11.89 6.89,16.47 4.6,4.6 10.09,6.89 16.47,6.89l287.53 0c6.39,0 11.88,-2.29 16.47,-6.89 4.59,-4.59 6.88,-10.08 6.88,-16.47l0 -96.44c0,-6.4 -2.29,-11.78 -6.88,-16.17 -4.6,-4.39 -10.09,-6.59 -16.47,-6.59l-287.53 0c-13.18,0 -25.26,-3.29 -36.24,-9.88 -10.98,-6.59 -19.66,-15.28 -26.06,-26.06 -6.39,-10.79 -9.58,-22.76 -9.58,-35.94l0 -96.44c0,-13.17 3.2,-25.25 9.58,-36.23 6.4,-10.98 15.07,-19.67 26.06,-26.06 10.98,-6.4 23.06,-9.58 36.24,-9.58l287.53 0c13.18,0 25.26,3.19 36.23,9.58 10.98,6.39 19.67,15.07 26.06,26.06 6.4,10.98 9.58,23.06 9.58,36.23l0 16.78 -48.52 0 0 -16.78c0,-6.39 -2.29,-11.88 -6.88,-16.46 -4.6,-4.6 -10.09,-6.89 -16.47,-6.89l-287.53 0c-6.39,0 -11.88,2.29 -16.47,6.89 -4.59,4.59 -6.89,10.08 -6.89,16.46l0 96.44c0,6.39 2.3,11.78 6.89,16.17 4.6,4.39 10.09,6.59 16.47,6.59l287.53 0c13.18,0 25.26,3.29 36.23,9.88 10.98,6.59 19.67,15.27 26.06,26.06 6.4,10.78 9.58,22.76 9.58,35.94l0 96.44c0,13.18 -3.19,25.26 -9.58,36.24 -6.39,10.98 -15.07,19.67 -26.06,26.06 -10.97,6.39 -23.05,9.58 -36.23,9.58l-287.53 0z"/>
 </g>
</svg>
